<mxfile host="Electron" agent="Mozilla/5.0 (Macintosh; Intel Mac OS X 10_15_7) AppleWebKit/537.36 (KHTML, like Gecko) draw.io/25.0.2 Chrome/128.0.6613.186 Electron/32.2.5 Safari/537.36" version="25.0.2">
  <diagram name="Page-1" id="NU6w3_vBbjBp84ztzsgR">
    <mxGraphModel dx="420" dy="2023" grid="1" gridSize="10" guides="1" tooltips="1" connect="1" arrows="1" fold="1" page="1" pageScale="1" pageWidth="827" pageHeight="1169" math="0" shadow="0">
      <root>
        <mxCell id="0" />
        <mxCell id="1" parent="0" />
        <mxCell id="oG5XHTSxYlTZjXw5HoTQ-35" value="&lt;h1 style=&quot;margin-top: 0px;&quot;&gt;Events design principles&lt;/h1&gt;&lt;p&gt;- 2 types of events:&lt;br&gt;&amp;nbsp; &amp;nbsp; - A. data &quot;read&quot; from a HW source: eg. button press or rotary encoder rotation;&lt;br&gt;&amp;nbsp; &amp;nbsp; - B. event generated by a SW object: eg. target T update, error status update.&lt;/p&gt;&lt;p&gt;- For type A we follow these rules:&lt;br&gt;&amp;nbsp; &amp;nbsp; - every data that is updated with freq &amp;gt; 1 sec is managed with events: eg. target temperature;&lt;br&gt;&amp;nbsp; &amp;nbsp; - every data that is updated with freq &amp;lt; 1 sec is NOT managed with events (there would be too many events): eg. timer.&lt;br&gt;&lt;span style=&quot;background-color: initial;&quot;&gt;&lt;br&gt;- the SW object that &quot;reads&quot; data from a HW source must&amp;nbsp;&lt;u&gt;publish&lt;/u&gt; the event&amp;nbsp;(if the datum is managed with events): eg.&amp;nbsp;&lt;/span&gt;&lt;span style=&quot;text-align: center; background-color: initial;&quot;&gt;RotaryEncoderDevices that publishes the &lt;/span&gt;&lt;span style=&quot;background-color: initial;&quot;&gt;press event.&lt;br&gt;&lt;/span&gt;&lt;span style=&quot;background-color: initial;&quot;&gt;- the SW object &lt;/span&gt;&lt;u style=&quot;background-color: initial;&quot;&gt;subscribed&lt;/u&gt;&lt;span style=&quot;background-color: initial;&quot;&gt; to an event, might react straight away or cache the data: eg. DisplayDevice caches _isHeatingOn.&lt;br&gt;&lt;/span&gt;&lt;span style=&quot;background-color: initial;&quot;&gt;- SW object might be &lt;u&gt;subscribed&lt;/u&gt; to type A events and &lt;u&gt;publish&lt;/u&gt; type B events: eg. SchedulerDomain is subscribed to the TargetTRotary rotation event, update the target temperature and than publish the TargetT update event.&lt;/span&gt;&lt;/p&gt;" style="text;html=1;whiteSpace=wrap;overflow=hidden;rounded=0;" parent="1" vertex="1">
          <mxGeometry x="1840" y="-420" width="950" height="240" as="geometry" />
        </mxCell>
        <mxCell id="oG5XHTSxYlTZjXw5HoTQ-54" value="" style="endArrow=none;dashed=1;html=1;rounded=0;entryX=1;entryY=0.5;entryDx=0;entryDy=0;" parent="1" target="1o0-CjudGOmomulbo82O-17" edge="1">
          <mxGeometry width="50" height="50" relative="1" as="geometry">
            <mxPoint x="3060" y="1000" as="sourcePoint" />
            <mxPoint x="2936" y="781.5" as="targetPoint" />
          </mxGeometry>
        </mxCell>
        <mxCell id="oG5XHTSxYlTZjXw5HoTQ-76" value="&lt;font style=&quot;background-color: rgb(179, 179, 179);&quot; color=&quot;#000000&quot;&gt;&lt;span style=&quot;text-align: center;&quot;&gt;DisplayDevice&lt;/span&gt;&lt;/font&gt;&lt;div&gt;&lt;div&gt;&amp;nbsp; _isHeatingOn = pEvent-&amp;gt;isOn;&lt;/div&gt;&lt;div&gt;&amp;nbsp; if (_isOn)&amp;nbsp;_refreshFirstRow();&lt;/div&gt;&lt;/div&gt;" style="text;html=1;align=left;verticalAlign=middle;whiteSpace=wrap;rounded=0;" parent="1" vertex="1">
          <mxGeometry x="2752" y="302" width="180" height="60" as="geometry" />
        </mxCell>
        <mxCell id="oG5XHTSxYlTZjXw5HoTQ-90" value="&lt;font style=&quot;background-color: rgb(179, 179, 179);&quot; color=&quot;#000000&quot;&gt;&lt;span style=&quot;text-align: center;&quot;&gt;HeatingDomain::_onSchedulerStartEvent&lt;/span&gt;&lt;/font&gt;&lt;div&gt;&lt;span style=&quot;background-color: initial;&quot;&gt;&amp;nbsp; // Execute `runCheck` so it reacts asap.&amp;nbsp;&lt;/span&gt;&lt;span style=&quot;background-color: initial;&quot;&gt;&lt;br&gt;&lt;/span&gt;&lt;/div&gt;&lt;div&gt;&amp;nbsp; runCheck();&lt;/div&gt;&lt;div&gt;&amp;nbsp; if (runTaskId != INVALIDID)&amp;nbsp;&lt;span style=&quot;background-color: initial;&quot;&gt;&amp;lt;it&#39;s a BUG&amp;gt;&lt;/span&gt;&lt;/div&gt;&lt;div&gt;&amp;nbsp; else&lt;/div&gt;&lt;div&gt;&amp;nbsp; &amp;nbsp; runTaskId = scheduleFixedRate(5sec, runCheck());&lt;/div&gt;" style="text;html=1;align=left;verticalAlign=middle;whiteSpace=wrap;rounded=0;" parent="1" vertex="1">
          <mxGeometry x="2760" y="1430" width="320" height="90" as="geometry" />
        </mxCell>
        <mxCell id="oG5XHTSxYlTZjXw5HoTQ-93" value="&lt;span style=&quot;text-align: center;&quot;&gt;&lt;span style=&quot;color: rgb(0, 0, 0); background-color: rgb(179, 179, 179);&quot;&gt;HeatingDomain::_switchOn()&lt;/span&gt; &lt;font color=&quot;#ffffff&quot;&gt;and&lt;/font&gt;&amp;nbsp;&lt;span style=&quot;color: rgb(0, 0, 0); background-color: rgb(179, 179, 179);&quot;&gt;_switchOff()&lt;/span&gt;&lt;/span&gt;&lt;div&gt;&lt;div&gt;&lt;i&gt;&amp;nbsp; &amp;lt;see&amp;nbsp;left hand side&amp;gt;&lt;/i&gt;&lt;/div&gt;&lt;/div&gt;" style="text;html=1;align=left;verticalAlign=middle;whiteSpace=wrap;rounded=0;" parent="1" vertex="1">
          <mxGeometry x="3070" y="1284" width="250" height="50" as="geometry" />
        </mxCell>
        <mxCell id="oG5XHTSxYlTZjXw5HoTQ-98" value="&lt;font style=&quot;background-color: rgb(179, 179, 179);&quot; color=&quot;#000000&quot;&gt;&lt;span style=&quot;text-align: center;&quot;&gt;RotaryEncoderDevices&lt;/span&gt;&lt;/font&gt;&lt;div&gt;&lt;span style=&quot;background-color: initial;&quot;&gt;&amp;nbsp;&amp;nbsp;&lt;/span&gt;&lt;span style=&quot;background-color: initial;&quot;&gt;setCurrentReading(INITIAL_TARGET_T);&lt;/span&gt;&lt;/div&gt;" style="text;html=1;align=left;verticalAlign=middle;whiteSpace=wrap;rounded=0;" parent="1" vertex="1">
          <mxGeometry x="2470" y="1530" width="250" height="50" as="geometry" />
        </mxCell>
        <mxCell id="oG5XHTSxYlTZjXw5HoTQ-116" value="&lt;div style=&quot;text-align: left;&quot;&gt;&lt;span style=&quot;font-style: normal;&quot;&gt;&lt;span style=&quot;color: rgb(0, 0, 0); background-color: rgb(179, 179, 179);&quot;&gt;SchedulerDomain::&lt;/span&gt;&lt;font color=&quot;#000000&quot; style=&quot;background-color: rgb(179, 179, 179);&quot;&gt;reset()&lt;/font&gt;&lt;/span&gt;&lt;/div&gt;&lt;div style=&quot;text-align: left;&quot;&gt;&lt;font color=&quot;#000000&quot; style=&quot;&quot;&gt;&lt;/font&gt;&lt;font color=&quot;#ffffff&quot;&gt;&amp;lt;see right hand side&amp;gt;&lt;/font&gt;&lt;/div&gt;&lt;div style=&quot;text-align: left;&quot;&gt;&lt;font color=&quot;#ffffff&quot;&gt;&lt;br&gt;&lt;/font&gt;&lt;/div&gt;&lt;div style=&quot;text-align: left;&quot;&gt;&lt;span style=&quot;font-style: normal; color: rgb(0, 0, 0); background-color: rgb(179, 179, 179);&quot;&gt;SchedulerDomain::&lt;/span&gt;&lt;font style=&quot;&quot;&gt;&lt;span style=&quot;background-color: rgb(179, 179, 179); color: rgb(0, 0, 0); font-style: normal;&quot;&gt;tick()&lt;/span&gt;&lt;br&gt;&lt;div style=&quot;&quot;&gt;&lt;span style=&quot;font-style: normal;&quot;&gt;&lt;font style=&quot;&quot; color=&quot;#ffffff&quot;&gt;&amp;nbsp; if (timer.isOver())&amp;nbsp;&lt;/font&gt;&lt;/span&gt;&lt;span style=&quot;color: rgb(255, 255, 255); font-style: normal; background-color: initial;&quot;&gt;return timer.getTime();&lt;/span&gt;&lt;/div&gt;&lt;div style=&quot;&quot;&gt;&lt;span style=&quot;font-style: normal;&quot;&gt;&lt;font color=&quot;#ffffff&quot;&gt;&amp;nbsp; time = timer.tick();&lt;/font&gt;&lt;/span&gt;&lt;/div&gt;&lt;div style=&quot;&quot;&gt;&lt;span style=&quot;font-style: normal;&quot;&gt;&lt;font color=&quot;#ffffff&quot;&gt;&amp;nbsp; if (timer.isOver())&lt;/font&gt;&lt;/span&gt;&lt;/div&gt;&lt;div style=&quot;&quot;&gt;&lt;span style=&quot;font-style: normal;&quot;&gt;&lt;span style=&quot;color: rgb(255, 255, 255);&quot;&gt;&amp;nbsp; &amp;nbsp; &lt;/span&gt;&lt;font color=&quot;#000000&quot; style=&quot;background-color: rgb(255, 51, 255);&quot;&gt;publish&lt;/font&gt;&lt;font color=&quot;#ffffff&quot;&gt;(&lt;/font&gt;&lt;b style=&quot;&quot;&gt;&lt;font color=&quot;#33ff33&quot;&gt;Scheduler&lt;/font&gt;&lt;/b&gt;&lt;font color=&quot;#ffffff&quot;&gt;EndEvent());&lt;/font&gt;&lt;/span&gt;&lt;/div&gt;&lt;div style=&quot;&quot;&gt;&lt;span style=&quot;font-style: normal;&quot;&gt;&lt;font style=&quot;&quot; color=&quot;#ffffff&quot;&gt;&amp;nbsp; return time;&lt;br&gt;&lt;/font&gt;&lt;/span&gt;&lt;/div&gt;&lt;/font&gt;&lt;/div&gt;&lt;div&gt;&lt;/div&gt;" style="text;html=1;align=left;verticalAlign=middle;whiteSpace=wrap;rounded=0;fontStyle=2" parent="1" vertex="1">
          <mxGeometry x="2020" y="1300" width="230" height="151" as="geometry" />
        </mxCell>
        <mxCell id="3VPr-c6d4i7MqqtwLz9h-2" value="SUBSCRIBERS" style="text;html=1;align=center;verticalAlign=middle;whiteSpace=wrap;rounded=0;fontStyle=1;fontSize=19;" parent="1" vertex="1">
          <mxGeometry x="2630" y="-170" width="160" height="40" as="geometry" />
        </mxCell>
        <mxCell id="3VPr-c6d4i7MqqtwLz9h-3" value="PUBLISHERS" style="text;html=1;align=center;verticalAlign=middle;whiteSpace=wrap;rounded=0;fontStyle=1;fontSize=19;" parent="1" vertex="1">
          <mxGeometry x="1800" y="-180" width="160" height="40" as="geometry" />
        </mxCell>
        <mxCell id="3VPr-c6d4i7MqqtwLz9h-4" value="&lt;font style=&quot;background-color: rgb(179, 179, 179);&quot; color=&quot;#000000&quot;&gt;&lt;span style=&quot;text-align: center;&quot;&gt;DisplayDevice&lt;/span&gt;&lt;/font&gt;&lt;div&gt;&lt;span style=&quot;background-color: initial;&quot;&gt;&amp;nbsp;&amp;nbsp;&lt;/span&gt;&lt;span style=&quot;background-color: initial;&quot;&gt;_targetT = pEvent-&amp;gt;targetT;&lt;/span&gt;&lt;span style=&quot;background-color: initial;&quot;&gt;&lt;br&gt;&lt;/span&gt;&lt;/div&gt;&lt;div&gt;&lt;span style=&quot;background-color: initial;&quot;&gt;&amp;nbsp;&amp;nbsp;&lt;/span&gt;&lt;span style=&quot;background-color: initial;&quot;&gt;_refreshFirstRow()&lt;/span&gt;&lt;/div&gt;" style="text;html=1;align=left;verticalAlign=middle;whiteSpace=wrap;rounded=0;" parent="1" vertex="1">
          <mxGeometry x="2400" y="1186" width="160" height="50" as="geometry" />
        </mxCell>
        <mxCell id="1o0-CjudGOmomulbo82O-11" style="rounded=0;orthogonalLoop=1;jettySize=auto;html=1;exitX=1;exitY=0.5;exitDx=0;exitDy=0;entryX=0;entryY=0.5;entryDx=0;entryDy=0;strokeColor=#FF0000;" parent="1" source="1o0-CjudGOmomulbo82O-1" target="1o0-CjudGOmomulbo82O-8" edge="1">
          <mxGeometry relative="1" as="geometry" />
        </mxCell>
        <mxCell id="1o0-CjudGOmomulbo82O-1" value="&lt;b&gt;&lt;font color=&quot;#ff0000&quot;&gt;Error&lt;/font&gt;&lt;/b&gt;StatusUpdateEvent&lt;br&gt;&lt;font face=&quot;Courier New&quot;&gt;- isError&lt;/font&gt;&lt;div&gt;&lt;font face=&quot;Courier New&quot;&gt;- messageList&lt;/font&gt;&lt;/div&gt;" style="rounded=1;whiteSpace=wrap;html=1;strokeColor=#FF0000;" parent="1" vertex="1">
          <mxGeometry x="2270" y="180" width="120" height="60" as="geometry" />
        </mxCell>
        <mxCell id="1o0-CjudGOmomulbo82O-10" style="rounded=0;orthogonalLoop=1;jettySize=auto;html=1;exitX=1;exitY=0.5;exitDx=0;exitDy=0;entryX=0;entryY=0.5;entryDx=0;entryDy=0;strokeColor=#FF0000;" parent="1" source="1o0-CjudGOmomulbo82O-2" target="1o0-CjudGOmomulbo82O-1" edge="1">
          <mxGeometry relative="1" as="geometry" />
        </mxCell>
        <mxCell id="1o0-CjudGOmomulbo82O-2" value="&lt;b&gt;&lt;font color=&quot;#ff0000&quot;&gt;Error&lt;/font&gt;&lt;/b&gt;Manager" style="rounded=0;whiteSpace=wrap;html=1;strokeColor=#FFFFFF;" parent="1" vertex="1">
          <mxGeometry x="1900" y="10" width="120" height="60" as="geometry" />
        </mxCell>
        <mxCell id="1o0-CjudGOmomulbo82O-3" value="&lt;div&gt;&lt;span style=&quot;text-align: center; background-color: rgb(179, 179, 179);&quot;&gt;&lt;font style=&quot;&quot; color=&quot;#000000&quot;&gt;ErrorManager::&lt;/font&gt;&lt;/span&gt;&lt;font style=&quot;background-color: rgb(179, 179, 179);&quot; color=&quot;#000000&quot;&gt;addDs18b20SensorError()&lt;/font&gt; and&lt;/div&gt;&lt;div&gt;&lt;span style=&quot;background-color: rgb(179, 179, 179);&quot;&gt;&lt;font color=&quot;#000000&quot;&gt;addSht85SensorError()&lt;/font&gt;&lt;/span&gt;&lt;/div&gt;&lt;div&gt;&amp;nbsp; if (_isDs18b20SensorError) return;&lt;/div&gt;&lt;div&gt;&amp;nbsp; _errorList.push_back(_DS18B20_ERR_MSG);&lt;/div&gt;&lt;div&gt;&amp;nbsp; &lt;span style=&quot;background-color: rgb(255, 51, 255);&quot;&gt;&lt;font color=&quot;#000000&quot;&gt;publish&lt;/font&gt;&lt;/span&gt;(&lt;b&gt;&lt;font color=&quot;#ff0000&quot;&gt;Error&lt;/font&gt;&lt;/b&gt;StatusUpdateEvent(true, _errorList));&lt;/div&gt;&lt;div&gt;&lt;br&gt;&lt;/div&gt;&lt;div&gt;&lt;span style=&quot;background-color: rgb(179, 179, 179); color: rgb(0, 0, 0); text-align: center;&quot;&gt;ErrorManager::&lt;/span&gt;&lt;font style=&quot;background-color: rgb(179, 179, 179);&quot; color=&quot;#000000&quot;&gt;removeDs18b20SensorError()&lt;/font&gt; and&lt;/div&gt;&lt;div&gt;&lt;font style=&quot;background-color: rgb(179, 179, 179);&quot; color=&quot;#000000&quot;&gt;removeSht85SensorError()&lt;/font&gt;&lt;/div&gt;&lt;div&gt;&amp;nbsp; if (!_isDs18b20SensorError) return;&lt;/div&gt;&lt;div&gt;&amp;nbsp; _errorList.remove(_DS18B20_ERR_MSG);&lt;/div&gt;&lt;div&gt;&amp;nbsp; if (!areThereErrors()) &lt;span style=&quot;background-color: rgb(255, 51, 255);&quot;&gt;&lt;font color=&quot;#000000&quot;&gt;publish&lt;/font&gt;&lt;/span&gt;(&lt;b&gt;&lt;font color=&quot;#ff0000&quot;&gt;Error&lt;/font&gt;&lt;/b&gt;StatusUpdateEvent(false));&lt;/div&gt;" style="text;html=1;align=left;verticalAlign=middle;whiteSpace=wrap;rounded=0;" parent="1" vertex="1">
          <mxGeometry x="1844" y="80" width="346" height="160" as="geometry" />
        </mxCell>
        <mxCell id="1o0-CjudGOmomulbo82O-4" style="edgeStyle=orthogonalEdgeStyle;rounded=1;orthogonalLoop=1;jettySize=auto;html=1;exitX=1;exitY=0.5;exitDx=0;exitDy=0;curved=0;" parent="1" source="1o0-CjudGOmomulbo82O-5" target="1o0-CjudGOmomulbo82O-3" edge="1">
          <mxGeometry relative="1" as="geometry" />
        </mxCell>
        <mxCell id="1o0-CjudGOmomulbo82O-5" value="Ds18b20Sensor" style="rounded=0;whiteSpace=wrap;html=1;" parent="1" vertex="1">
          <mxGeometry x="1654" y="100" width="120" height="60" as="geometry" />
        </mxCell>
        <mxCell id="1o0-CjudGOmomulbo82O-6" style="edgeStyle=orthogonalEdgeStyle;rounded=1;orthogonalLoop=1;jettySize=auto;html=1;exitX=1;exitY=0.5;exitDx=0;exitDy=0;entryX=0;entryY=0.5;entryDx=0;entryDy=0;curved=0;" parent="1" source="1o0-CjudGOmomulbo82O-7" target="1o0-CjudGOmomulbo82O-3" edge="1">
          <mxGeometry relative="1" as="geometry" />
        </mxCell>
        <mxCell id="1o0-CjudGOmomulbo82O-7" value="Sht85Sensor" style="rounded=0;whiteSpace=wrap;html=1;" parent="1" vertex="1">
          <mxGeometry x="1654" y="180" width="120" height="60" as="geometry" />
        </mxCell>
        <mxCell id="1o0-CjudGOmomulbo82O-8" value="&lt;b&gt;&lt;font color=&quot;#ff0000&quot;&gt;Error&lt;/font&gt;&lt;/b&gt;LedDevice" style="rounded=0;whiteSpace=wrap;html=1;strokeColor=#FFFFFF;" parent="1" vertex="1">
          <mxGeometry x="2560" y="80" width="120" height="60" as="geometry" />
        </mxCell>
        <mxCell id="1o0-CjudGOmomulbo82O-9" value="&lt;div&gt;&lt;span style=&quot;color: rgb(0, 0, 0); text-align: center; background-color: rgb(179, 179, 179);&quot;&gt;ErrorLedDevice&lt;/span&gt;&lt;font color=&quot;#ffffff&quot;&gt;&lt;br&gt;pEvent-&amp;gt;isError ? startBlinking() : stopBlinking();&lt;/font&gt;&lt;/div&gt;" style="text;html=1;align=left;verticalAlign=middle;whiteSpace=wrap;rounded=0;" parent="1" vertex="1">
          <mxGeometry x="2428.5" y="120" width="261.5" height="60" as="geometry" />
        </mxCell>
        <mxCell id="1o0-CjudGOmomulbo82O-12" value="RelayDevice" style="rounded=0;whiteSpace=wrap;html=1;" parent="1" vertex="1">
          <mxGeometry x="3040" y="220" width="120" height="60" as="geometry" />
        </mxCell>
        <mxCell id="1o0-CjudGOmomulbo82O-19" style="rounded=0;orthogonalLoop=1;jettySize=auto;html=1;exitX=1;exitY=0.25;exitDx=0;exitDy=0;entryX=0;entryY=0.5;entryDx=0;entryDy=0;strokeColor=#FF9933;" parent="1" source="1o0-CjudGOmomulbo82O-13" target="1o0-CjudGOmomulbo82O-12" edge="1">
          <mxGeometry relative="1" as="geometry" />
        </mxCell>
        <mxCell id="1o0-CjudGOmomulbo82O-26" style="edgeStyle=orthogonalEdgeStyle;rounded=1;orthogonalLoop=1;jettySize=auto;html=1;exitX=1;exitY=0.75;exitDx=0;exitDy=0;entryX=0.5;entryY=0;entryDx=0;entryDy=0;curved=0;strokeColor=#FF9933;" parent="1" source="1o0-CjudGOmomulbo82O-13" target="1o0-CjudGOmomulbo82O-17" edge="1">
          <mxGeometry relative="1" as="geometry" />
        </mxCell>
        <mxCell id="1o0-CjudGOmomulbo82O-13" value="&lt;b&gt;&lt;font color=&quot;#ff9933&quot;&gt;Heating&lt;/font&gt;&lt;/b&gt;StatusUpdateEvent&lt;br&gt;&lt;font face=&quot;Courier New&quot;&gt;- isOn&lt;/font&gt;" style="rounded=1;whiteSpace=wrap;html=1;strokeColor=#FF9933;" parent="1" vertex="1">
          <mxGeometry x="2270" y="310" width="120" height="60" as="geometry" />
        </mxCell>
        <mxCell id="1o0-CjudGOmomulbo82O-16" style="rounded=0;orthogonalLoop=1;jettySize=auto;html=1;exitX=1;exitY=0.5;exitDx=0;exitDy=0;strokeColor=#FF9933;" parent="1" source="1o0-CjudGOmomulbo82O-14" target="1o0-CjudGOmomulbo82O-13" edge="1">
          <mxGeometry relative="1" as="geometry" />
        </mxCell>
        <mxCell id="1o0-CjudGOmomulbo82O-14" value="&lt;b&gt;&lt;font color=&quot;#ff9933&quot;&gt;Heating&lt;/font&gt;&lt;/b&gt;Domain" style="rounded=0;whiteSpace=wrap;html=1;" parent="1" vertex="1">
          <mxGeometry x="1840" y="270" width="120" height="60" as="geometry" />
        </mxCell>
        <mxCell id="1o0-CjudGOmomulbo82O-15" value="&lt;font style=&quot;background-color: rgb(179, 179, 179);&quot; color=&quot;#000000&quot;&gt;&lt;span style=&quot;text-align: center;&quot;&gt;HeatingDomain::_&lt;/span&gt;&lt;font style=&quot;&quot;&gt;switchOn()&lt;/font&gt;&lt;/font&gt;&lt;div&gt;&lt;div&gt;&amp;nbsp; if (!_isOn)&amp;nbsp;&lt;span style=&quot;background-color: rgb(255, 51, 255);&quot;&gt;&lt;font color=&quot;#000000&quot;&gt;publish&lt;/font&gt;&lt;/span&gt;&lt;span style=&quot;background-color: initial;&quot;&gt;(&lt;/span&gt;&lt;b style=&quot;background-color: initial; text-align: center;&quot;&gt;&lt;font color=&quot;#ff9933&quot;&gt;Heating&lt;/font&gt;&lt;/b&gt;&lt;span style=&quot;background-color: initial; text-align: center;&quot;&gt;StatusUpdateEvent&lt;/span&gt;&lt;span style=&quot;background-color: initial;&quot;&gt;(true));&lt;/span&gt;&lt;/div&gt;&lt;/div&gt;&lt;div&gt;&lt;font style=&quot;background-color: rgb(179, 179, 179);&quot; color=&quot;#000000&quot;&gt;&lt;span style=&quot;text-align: center;&quot;&gt;&lt;br&gt;HeatingDomain::_&lt;/span&gt;switchOff()&lt;/font&gt;&lt;div&gt;&amp;nbsp; if (_isOn)&amp;nbsp;&lt;span style=&quot;background-color: rgb(255, 51, 255);&quot;&gt;&lt;font color=&quot;#000000&quot;&gt;publish&lt;/font&gt;&lt;/span&gt;(&lt;b style=&quot;text-align: center;&quot;&gt;&lt;font color=&quot;#ff9933&quot;&gt;Heating&lt;/font&gt;&lt;/b&gt;&lt;span style=&quot;text-align: center;&quot;&gt;StatusUpdateEvent&lt;/span&gt;(false));&lt;/div&gt;&lt;/div&gt;" style="text;html=1;align=left;verticalAlign=middle;whiteSpace=wrap;rounded=0;" parent="1" vertex="1">
          <mxGeometry x="1830" y="333" width="300" height="90" as="geometry" />
        </mxCell>
        <mxCell id="1o0-CjudGOmomulbo82O-17" value="DisplayDevice" style="rounded=0;whiteSpace=wrap;html=1;" parent="1" vertex="1">
          <mxGeometry x="2870" y="969" width="120" height="60" as="geometry" />
        </mxCell>
        <mxCell id="1o0-CjudGOmomulbo82O-18" value="&lt;font style=&quot;background-color: rgb(179, 179, 179);&quot; color=&quot;#000000&quot;&gt;&lt;span style=&quot;text-align: center;&quot;&gt;RelayDevice&lt;/span&gt;&lt;/font&gt;&lt;div&gt;&lt;div&gt;&amp;nbsp;&amp;nbsp;&lt;span style=&quot;background-color: initial;&quot;&gt;pEvent-&amp;gt;isOn ? this-&amp;gt;_switchOn() : this-&amp;gt;_switchOff();&lt;/span&gt;&lt;/div&gt;&lt;/div&gt;" style="text;html=1;align=left;verticalAlign=middle;whiteSpace=wrap;rounded=0;" parent="1" vertex="1">
          <mxGeometry x="2705" y="220" width="310" height="37" as="geometry" />
        </mxCell>
        <mxCell id="1o0-CjudGOmomulbo82O-20" value="&lt;span style=&quot;color: rgb(0, 0, 0); text-align: center; background-color: rgb(179, 179, 179);&quot;&gt;DisplayDevice::&lt;/span&gt;&lt;font style=&quot;background-color: rgb(179, 179, 179);&quot; color=&quot;#000000&quot;&gt;_printData()&lt;/font&gt;&lt;div&gt;&lt;div&gt;&amp;nbsp; _printFirstRow();&lt;/div&gt;&lt;div&gt;&amp;nbsp; _printSecondRow();&lt;/div&gt;&lt;div&gt;&amp;nbsp; if ((displayDataTaskId == INVALIDID) &amp;amp;&amp;amp; _isOn)&lt;/div&gt;&lt;/div&gt;&lt;div&gt;&amp;nbsp; &amp;nbsp;&amp;nbsp;scheduleFixedRate(1sec, _printData());&lt;/div&gt;" style="text;html=1;align=left;verticalAlign=middle;whiteSpace=wrap;rounded=0;" parent="1" vertex="1">
          <mxGeometry x="3070" y="660" width="280" height="110" as="geometry" />
        </mxCell>
        <mxCell id="1o0-CjudGOmomulbo82O-21" value="&lt;div&gt;&lt;span style=&quot;background-color: rgb(179, 179, 179); color: rgb(0, 0, 0); text-align: center;&quot;&gt;DisplayDevice::&lt;/span&gt;&lt;span style=&quot;background-color: rgb(179, 179, 179);&quot;&gt;&lt;font color=&quot;#000000&quot;&gt;_printFirstRow()&lt;/font&gt;&lt;/span&gt;&lt;/div&gt;&lt;div&gt;&lt;span style=&quot;background-color: initial;&quot;&gt;&amp;nbsp; schedulerDomain.tick();&lt;/span&gt;&lt;/div&gt;&lt;div&gt;&lt;div&gt;&amp;nbsp; if (!schedulerDomain.isScheduled())&lt;/div&gt;&lt;div&gt;&amp;nbsp; &amp;nbsp; return print(&quot;SPENTO&quot;);&lt;/div&gt;&lt;div&gt;&amp;nbsp; p.print(schedulerDomain.targetTemperature);&lt;/div&gt;&lt;div&gt;&amp;nbsp; print(schedulerDomain.timer.format());&lt;/div&gt;&lt;div&gt;&amp;nbsp; _isHeatingOn ? print(&quot;ON&quot;) : print(&quot;OFF&quot;);&lt;/div&gt;&lt;/div&gt;" style="text;html=1;align=left;verticalAlign=middle;whiteSpace=wrap;rounded=0;" parent="1" vertex="1">
          <mxGeometry x="3070" y="760" width="270" height="115" as="geometry" />
        </mxCell>
        <mxCell id="1o0-CjudGOmomulbo82O-22" value="&lt;div&gt;&lt;span style=&quot;background-color: rgb(179, 179, 179); color: rgb(0, 0, 0); text-align: center;&quot;&gt;DisplayDevice::&lt;/span&gt;&lt;font style=&quot;background-color: rgb(179, 179, 179);&quot; color=&quot;#000000&quot;&gt;_printSecondRow()&lt;/font&gt;&lt;/div&gt;&lt;div&gt;&lt;span style=&quot;background-color: initial;&quot;&gt;&amp;nbsp; if (errorManager.areThereErrors())&lt;/span&gt;&lt;br&gt;&lt;/div&gt;&lt;div&gt;&amp;nbsp; &amp;nbsp; &amp;lt;print and rotate error messages&amp;gt;&lt;/div&gt;&lt;div&gt;&amp;nbsp; ds18b20Sensor.getData();&lt;/div&gt;&lt;div&gt;&amp;nbsp; &amp;lt;if ok print data, else print error&amp;gt;&lt;/div&gt;&lt;div&gt;&amp;nbsp; sht85Sensor.getData();&lt;/div&gt;&lt;div&gt;&amp;nbsp; &amp;lt;if ok print data, else print error&amp;gt;&lt;/div&gt;" style="text;html=1;align=left;verticalAlign=middle;whiteSpace=wrap;rounded=0;" parent="1" vertex="1">
          <mxGeometry x="3070" y="879" width="260" height="120" as="geometry" />
        </mxCell>
        <mxCell id="1o0-CjudGOmomulbo82O-23" value="" style="endArrow=none;dashed=1;html=1;rounded=0;" parent="1" edge="1">
          <mxGeometry width="50" height="50" relative="1" as="geometry">
            <mxPoint x="3060" y="1110" as="sourcePoint" />
            <mxPoint x="3060" y="670" as="targetPoint" />
          </mxGeometry>
        </mxCell>
        <mxCell id="1o0-CjudGOmomulbo82O-24" value="&lt;div style=&quot;text-align: left;&quot;&gt;&lt;font style=&quot;background-color: rgb(179, 179, 179);&quot; color=&quot;#000000&quot;&gt;&lt;span style=&quot;text-align: center;&quot;&gt;DisplayDevice::&lt;/span&gt;&lt;font style=&quot;&quot;&gt;_&lt;/font&gt;refreshFirstRow()&lt;/font&gt;&lt;/div&gt;&lt;div&gt;&lt;div&gt;&amp;nbsp; if (!_isOn) return switchOn();&lt;/div&gt;&lt;div&gt;&amp;nbsp; cancelTask(displayDataTaskId);&lt;/div&gt;&lt;div&gt;&amp;nbsp; _printFirstRow();&lt;/div&gt;&lt;div&gt;&amp;nbsp; if ((displayDataTaskId == INVALIDID) &amp;amp;&amp;amp; _isOn)&lt;/div&gt;&lt;div&gt;&amp;nbsp; &amp;nbsp; scheduleFixedRate(1sec, _printData());&lt;/div&gt;&lt;/div&gt;" style="text;html=1;align=left;verticalAlign=middle;whiteSpace=wrap;rounded=0;" parent="1" vertex="1">
          <mxGeometry x="3070" y="1000" width="270" height="120" as="geometry" />
        </mxCell>
        <mxCell id="1o0-CjudGOmomulbo82O-38" style="edgeStyle=orthogonalEdgeStyle;rounded=1;orthogonalLoop=1;jettySize=auto;html=1;exitX=1;exitY=0.5;exitDx=0;exitDy=0;entryX=0.5;entryY=0;entryDx=0;entryDy=0;curved=0;strokeColor=#9999FF;" parent="1" source="1o0-CjudGOmomulbo82O-27" target="1o0-CjudGOmomulbo82O-36" edge="1">
          <mxGeometry relative="1" as="geometry">
            <Array as="points">
              <mxPoint x="2420" y="484" />
              <mxPoint x="2420" y="430" />
              <mxPoint x="2835" y="430" />
            </Array>
          </mxGeometry>
        </mxCell>
        <mxCell id="1o0-CjudGOmomulbo82O-27" value="Any&lt;b&gt;&lt;font color=&quot;#9999ff&quot;&gt;Rotary&lt;/font&gt;&lt;/b&gt;HoldEvent" style="rounded=1;whiteSpace=wrap;html=1;strokeColor=#9999FF;" parent="1" vertex="1">
          <mxGeometry x="2270" y="454" width="120" height="60" as="geometry" />
        </mxCell>
        <mxCell id="1o0-CjudGOmomulbo82O-46" style="edgeStyle=orthogonalEdgeStyle;rounded=1;orthogonalLoop=1;jettySize=auto;html=1;exitX=1;exitY=0.75;exitDx=0;exitDy=0;curved=0;strokeColor=#9999FF;" parent="1" source="1o0-CjudGOmomulbo82O-28" edge="1">
          <mxGeometry relative="1" as="geometry">
            <mxPoint x="2900" y="970" as="targetPoint" />
            <Array as="points">
              <mxPoint x="2430" y="833" />
              <mxPoint x="2430" y="930" />
              <mxPoint x="2900" y="930" />
            </Array>
          </mxGeometry>
        </mxCell>
        <mxCell id="1o0-CjudGOmomulbo82O-54" style="edgeStyle=orthogonalEdgeStyle;rounded=1;orthogonalLoop=1;jettySize=auto;html=1;exitX=1;exitY=0.25;exitDx=0;exitDy=0;entryX=0.5;entryY=1;entryDx=0;entryDy=0;curved=0;strokeColor=#9999FF;" parent="1" source="1o0-CjudGOmomulbo82O-28" target="1o0-CjudGOmomulbo82O-36" edge="1">
          <mxGeometry relative="1" as="geometry">
            <Array as="points">
              <mxPoint x="2835" y="803" />
            </Array>
          </mxGeometry>
        </mxCell>
        <mxCell id="1o0-CjudGOmomulbo82O-28" value="TargetT&lt;b&gt;&lt;font color=&quot;#9999ff&quot;&gt;Rotary&lt;/font&gt;&lt;/b&gt;RotationEvent&lt;br&gt;&lt;font face=&quot;Courier New&quot;&gt;- value&lt;br&gt;- isDisplayOn&lt;/font&gt;" style="rounded=1;whiteSpace=wrap;html=1;strokeColor=#9999FF;" parent="1" vertex="1">
          <mxGeometry x="2270" y="788" width="120" height="60" as="geometry" />
        </mxCell>
        <mxCell id="1o0-CjudGOmomulbo82O-49" style="edgeStyle=orthogonalEdgeStyle;rounded=1;orthogonalLoop=1;jettySize=auto;html=1;exitX=1;exitY=0.75;exitDx=0;exitDy=0;entryX=0.25;entryY=0;entryDx=0;entryDy=0;curved=0;strokeColor=#9999FF;" parent="1" source="1o0-CjudGOmomulbo82O-29" target="1o0-CjudGOmomulbo82O-17" edge="1">
          <mxGeometry relative="1" as="geometry">
            <Array as="points">
              <mxPoint x="2430" y="657" />
              <mxPoint x="2430" y="930" />
              <mxPoint x="2900" y="930" />
            </Array>
          </mxGeometry>
        </mxCell>
        <mxCell id="1o0-CjudGOmomulbo82O-53" style="rounded=0;orthogonalLoop=1;jettySize=auto;html=1;exitX=1;exitY=0.25;exitDx=0;exitDy=0;entryX=0;entryY=0.25;entryDx=0;entryDy=0;strokeColor=#9999FF;" parent="1" source="1o0-CjudGOmomulbo82O-29" target="1o0-CjudGOmomulbo82O-36" edge="1">
          <mxGeometry relative="1" as="geometry" />
        </mxCell>
        <mxCell id="1o0-CjudGOmomulbo82O-29" value="Timer&lt;b&gt;&lt;font color=&quot;#9999ff&quot;&gt;Rotary&lt;/font&gt;&lt;/b&gt;RotationEvent&lt;br&gt;&lt;font face=&quot;Courier New&quot;&gt;- value&lt;br&gt;- isDisplayOn&lt;/font&gt;" style="rounded=1;whiteSpace=wrap;html=1;strokeColor=#9999FF;" parent="1" vertex="1">
          <mxGeometry x="2270" y="612" width="120" height="60" as="geometry" />
        </mxCell>
        <mxCell id="1o0-CjudGOmomulbo82O-36" value="&lt;b&gt;&lt;font color=&quot;#33ff33&quot;&gt;Scheduler&lt;/font&gt;&lt;/b&gt;Domain" style="rounded=0;whiteSpace=wrap;html=1;" parent="1" vertex="1">
          <mxGeometry x="2775" y="520" width="120" height="60" as="geometry" />
        </mxCell>
        <mxCell id="1o0-CjudGOmomulbo82O-37" value="&lt;span style=&quot;background-color: rgb(179, 179, 179);&quot;&gt;&lt;font color=&quot;#000000&quot;&gt;SchedulerDomain::reset()&lt;/font&gt;&lt;/span&gt;&lt;div&gt;&lt;div&gt;&lt;span style=&quot;background-color: initial;&quot;&gt;&amp;nbsp; timer.reset();&lt;/span&gt;&lt;br&gt;&lt;/div&gt;&lt;div&gt;&amp;nbsp; targetT = INITIAL_TARGET_T;&lt;/div&gt;&lt;div&gt;&amp;nbsp; if (wasScheduled)&lt;/div&gt;&lt;div&gt;&amp;nbsp; &amp;nbsp; &lt;font style=&quot;background-color: rgb(255, 51, 255);&quot; color=&quot;#000000&quot;&gt;publish&lt;/font&gt;(&lt;b&gt;&lt;font color=&quot;#33ff33&quot;&gt;Scheduler&lt;/font&gt;&lt;/b&gt;EndEvent());&lt;/div&gt;&lt;/div&gt;" style="text;html=1;align=left;verticalAlign=middle;whiteSpace=wrap;rounded=0;" parent="1" vertex="1">
          <mxGeometry x="2655" y="400" width="240" height="80" as="geometry" />
        </mxCell>
        <mxCell id="1o0-CjudGOmomulbo82O-40" style="edgeStyle=orthogonalEdgeStyle;rounded=1;orthogonalLoop=1;jettySize=auto;html=1;exitX=1;exitY=0.5;exitDx=0;exitDy=0;entryX=0;entryY=0.5;entryDx=0;entryDy=0;strokeColor=#9999FF;curved=0;" parent="1" source="1o0-CjudGOmomulbo82O-39" target="1o0-CjudGOmomulbo82O-27" edge="1">
          <mxGeometry relative="1" as="geometry" />
        </mxCell>
        <mxCell id="1o0-CjudGOmomulbo82O-41" style="edgeStyle=orthogonalEdgeStyle;rounded=1;orthogonalLoop=1;jettySize=auto;html=1;exitX=1;exitY=0.5;exitDx=0;exitDy=0;entryX=0;entryY=0.5;entryDx=0;entryDy=0;curved=0;strokeColor=#9999FF;" parent="1" source="1o0-CjudGOmomulbo82O-39" target="1o0-CjudGOmomulbo82O-28" edge="1">
          <mxGeometry relative="1" as="geometry" />
        </mxCell>
        <mxCell id="1o0-CjudGOmomulbo82O-42" style="edgeStyle=orthogonalEdgeStyle;rounded=1;orthogonalLoop=1;jettySize=auto;html=1;exitX=1;exitY=0.5;exitDx=0;exitDy=0;entryX=0;entryY=0.5;entryDx=0;entryDy=0;curved=0;strokeColor=#9999FF;" parent="1" source="1o0-CjudGOmomulbo82O-39" target="1o0-CjudGOmomulbo82O-29" edge="1">
          <mxGeometry relative="1" as="geometry" />
        </mxCell>
        <mxCell id="1o0-CjudGOmomulbo82O-60" style="edgeStyle=orthogonalEdgeStyle;rounded=1;orthogonalLoop=1;jettySize=auto;html=1;exitX=1;exitY=0.5;exitDx=0;exitDy=0;entryX=0;entryY=0.5;entryDx=0;entryDy=0;curved=0;strokeColor=#9999FF;" parent="1" source="1o0-CjudGOmomulbo82O-39" target="1o0-CjudGOmomulbo82O-55" edge="1">
          <mxGeometry relative="1" as="geometry" />
        </mxCell>
        <mxCell id="1o0-CjudGOmomulbo82O-61" style="edgeStyle=orthogonalEdgeStyle;rounded=1;orthogonalLoop=1;jettySize=auto;html=1;exitX=1;exitY=0.5;exitDx=0;exitDy=0;entryX=0;entryY=0.5;entryDx=0;entryDy=0;curved=0;strokeColor=#9999FF;" parent="1" source="1o0-CjudGOmomulbo82O-39" target="1o0-CjudGOmomulbo82O-56" edge="1">
          <mxGeometry relative="1" as="geometry" />
        </mxCell>
        <mxCell id="1o0-CjudGOmomulbo82O-39" value="&lt;b&gt;&lt;font color=&quot;#9999ff&quot;&gt;Rotary&lt;/font&gt;&lt;/b&gt;EncoderDevices" style="rounded=0;whiteSpace=wrap;html=1;" parent="1" vertex="1">
          <mxGeometry x="1930" y="728" width="120" height="60" as="geometry" />
        </mxCell>
        <mxCell id="1o0-CjudGOmomulbo82O-43" value="&lt;span style=&quot;color: rgb(0, 0, 0); background-color: rgb(179, 179, 179);&quot;&gt;SchedulerDomain::&lt;/span&gt;&lt;font style=&quot;background-color: rgb(179, 179, 179);&quot; color=&quot;#000000&quot;&gt;_onTargetTRotaryRotation()&lt;/font&gt;&lt;div&gt;&lt;div&gt;&amp;nbsp; if (pEvent-&amp;gt;isDisplayOn)&lt;/div&gt;&lt;div&gt;&amp;nbsp; &amp;nbsp; if (isScheduled())&lt;/div&gt;&lt;div&gt;&amp;nbsp; &amp;nbsp; &amp;nbsp; targetT = pEvent-&amp;gt;value;&lt;/div&gt;&lt;div&gt;&amp;nbsp; &amp;nbsp; &amp;nbsp; &lt;span style=&quot;background-color: rgb(255, 51, 255);&quot;&gt;&lt;font color=&quot;#000000&quot;&gt;publish&lt;/font&gt;&lt;/span&gt;(&lt;b&gt;&lt;font color=&quot;#33ff33&quot;&gt;Scheduler&lt;/font&gt;&lt;/b&gt;TargetTUpdateEvent(targetT));&lt;/div&gt;&lt;/div&gt;" style="text;html=1;align=left;verticalAlign=middle;whiteSpace=wrap;rounded=0;" parent="1" vertex="1">
          <mxGeometry x="2650" y="753" width="365" height="87" as="geometry" />
        </mxCell>
        <mxCell id="1o0-CjudGOmomulbo82O-47" value="&lt;font style=&quot;background-color: rgb(179, 179, 179);&quot; color=&quot;#000000&quot;&gt;&lt;span style=&quot;text-align: center;&quot;&gt;DisplayDevice::&lt;/span&gt;&lt;font style=&quot;&quot;&gt;switchOn()&lt;/font&gt;&lt;/font&gt;&lt;div&gt;&lt;span style=&quot;background-color: initial;&quot;&gt;&amp;nbsp;&amp;nbsp;&lt;/span&gt;&lt;span style=&quot;background-color: initial;&quot;&gt;cancelTask(switchOffTaskId);&lt;br&gt;&lt;/span&gt;&lt;span style=&quot;background-color: initial;&quot;&gt;&amp;nbsp;&amp;nbsp;&lt;/span&gt;&lt;span style=&quot;background-color: initial;&quot;&gt;schedule(in 20sec, switchOff);&lt;/span&gt;&lt;/div&gt;&lt;div&gt;&lt;span style=&quot;background-color: initial;&quot;&gt;&amp;nbsp;&amp;nbsp;&lt;/span&gt;&lt;span style=&quot;background-color: initial;&quot;&gt;if (!_isOn)&lt;/span&gt;&lt;/div&gt;&lt;div&gt;&lt;span style=&quot;background-color: initial;&quot;&gt;&amp;nbsp; &amp;nbsp; _printData();&lt;/span&gt;&lt;br&gt;&lt;/div&gt;" style="text;html=1;align=left;verticalAlign=middle;whiteSpace=wrap;rounded=0;" parent="1" vertex="1">
          <mxGeometry x="2520" y="860" width="170" height="98" as="geometry" />
        </mxCell>
        <mxCell id="1o0-CjudGOmomulbo82O-50" value="&lt;span style=&quot;color: rgb(0, 0, 0); background-color: rgb(179, 179, 179);&quot;&gt;SchedulerDomain::&lt;/span&gt;&lt;font style=&quot;background-color: rgb(179, 179, 179);&quot; color=&quot;#000000&quot;&gt;_onTimerRotaryRotation()&lt;/font&gt;&lt;div&gt;&lt;div&gt;&amp;nbsp; if (pEvent-&amp;gt;isDisplayOn)&lt;/div&gt;&lt;div&gt;&amp;nbsp; &amp;nbsp; if (timer.isOver())&lt;/div&gt;&lt;div&gt;&amp;nbsp; &amp;nbsp; &amp;nbsp; if(&lt;span style=&quot;background-color: initial;&quot;&gt;pEvent-&amp;gt;value &amp;gt; 0)&lt;/span&gt;&lt;/div&gt;&lt;div&gt;&amp;nbsp; &amp;nbsp; &amp;nbsp; &amp;nbsp; // If time is over and the timer rotary encoder was rotated clockwise.&lt;/div&gt;&lt;div&gt;&amp;nbsp; &amp;nbsp; &amp;nbsp; &amp;nbsp; timer.start(&amp;lt;initial value&amp;gt;);&lt;br&gt;&amp;nbsp; &amp;nbsp; &amp;nbsp; &amp;nbsp;&amp;nbsp;targetT = INITIAL_TARGET_T;&lt;/div&gt;&lt;div&gt;&amp;nbsp; &amp;nbsp; &amp;nbsp; &amp;nbsp;&amp;nbsp;&lt;font style=&quot;background-color: rgb(255, 51, 255);&quot; color=&quot;#000000&quot;&gt;publish&lt;/font&gt;(&lt;b&gt;&lt;font color=&quot;#33ff33&quot;&gt;Scheduler&lt;/font&gt;&lt;/b&gt;StartEvent());&lt;/div&gt;&lt;div&gt;&amp;nbsp; &amp;nbsp; else&amp;nbsp;&amp;nbsp;&lt;span style=&quot;background-color: initial;&quot;&gt;// If time is not over, then add/remove the time.&lt;/span&gt;&lt;/div&gt;&lt;div&gt;&lt;span style=&quot;background-color: initial;&quot;&gt;&amp;nbsp; &amp;nbsp; &amp;nbsp; (pEvent-&amp;gt;value &amp;gt; 0) ? timer.add(&amp;lt;15 min&amp;gt;) : timer.subtract(&amp;lt;15 min&amp;gt;);&lt;/span&gt;&lt;br&gt;&lt;/div&gt;&lt;div&gt;&amp;nbsp; &amp;nbsp; &amp;nbsp; tick();&lt;/div&gt;&lt;div&gt;&amp;nbsp; &amp;nbsp; &amp;nbsp; if (!timer.isOver())&amp;nbsp;&lt;font style=&quot;background-color: rgb(255, 51, 255);&quot; color=&quot;#000000&quot;&gt;publish&lt;/font&gt;(&lt;b&gt;&lt;font color=&quot;#33ff33&quot;&gt;Scheduler&lt;/font&gt;&lt;/b&gt;TimeUpdateEvent(time));&lt;br&gt;&lt;/div&gt;&lt;/div&gt;&lt;div&gt;&amp;nbsp; &amp;nbsp; &amp;nbsp; else&amp;nbsp;&lt;font style=&quot;background-color: rgb(255, 51, 255);&quot; color=&quot;#000000&quot;&gt;publish&lt;/font&gt;&lt;span style=&quot;background-color: initial;&quot;&gt;(&lt;/span&gt;&lt;b style=&quot;background-color: initial;&quot;&gt;&lt;font color=&quot;#33ff33&quot;&gt;Scheduler&lt;/font&gt;&lt;/b&gt;&lt;span style=&quot;background-color: initial;&quot;&gt;EndEvent());&lt;/span&gt;&lt;/div&gt;" style="text;html=1;align=left;verticalAlign=middle;whiteSpace=wrap;rounded=0;" parent="1" vertex="1">
          <mxGeometry x="2450" y="530" width="410" height="190" as="geometry" />
        </mxCell>
        <mxCell id="1o0-CjudGOmomulbo82O-57" style="edgeStyle=orthogonalEdgeStyle;rounded=1;orthogonalLoop=1;jettySize=auto;html=1;exitX=1;exitY=0.5;exitDx=0;exitDy=0;curved=0;strokeColor=#9999FF;" parent="1" source="1o0-CjudGOmomulbo82O-55" edge="1">
          <mxGeometry relative="1" as="geometry">
            <mxPoint x="2900" y="970" as="targetPoint" />
            <Array as="points">
              <mxPoint x="2430" y="899" />
              <mxPoint x="2430" y="930" />
              <mxPoint x="2900" y="930" />
            </Array>
          </mxGeometry>
        </mxCell>
        <mxCell id="1o0-CjudGOmomulbo82O-55" value="TargetT&lt;b&gt;&lt;font color=&quot;#9999ff&quot;&gt;Rotary&lt;/font&gt;&lt;/b&gt;PressEvent" style="rounded=1;whiteSpace=wrap;html=1;strokeColor=#9999FF;" parent="1" vertex="1">
          <mxGeometry x="2270" y="869" width="120" height="60" as="geometry" />
        </mxCell>
        <mxCell id="1o0-CjudGOmomulbo82O-59" style="edgeStyle=orthogonalEdgeStyle;rounded=1;orthogonalLoop=1;jettySize=auto;html=1;exitX=1;exitY=0.5;exitDx=0;exitDy=0;entryX=0.25;entryY=0;entryDx=0;entryDy=0;curved=0;strokeColor=#9999FF;" parent="1" source="1o0-CjudGOmomulbo82O-56" target="1o0-CjudGOmomulbo82O-17" edge="1">
          <mxGeometry relative="1" as="geometry">
            <Array as="points">
              <mxPoint x="2430" y="979" />
              <mxPoint x="2430" y="930" />
              <mxPoint x="2900" y="930" />
            </Array>
          </mxGeometry>
        </mxCell>
        <mxCell id="1o0-CjudGOmomulbo82O-56" value="Timer&lt;b&gt;&lt;font color=&quot;#9999ff&quot;&gt;Rotary&lt;/font&gt;&lt;/b&gt;PressEvent" style="rounded=1;whiteSpace=wrap;html=1;strokeColor=#9999FF;" parent="1" vertex="1">
          <mxGeometry x="2270" y="949" width="120" height="60" as="geometry" />
        </mxCell>
        <mxCell id="1o0-CjudGOmomulbo82O-62" value="" style="shape=flexArrow;endArrow=classic;html=1;rounded=0;endWidth=50;endSize=16;width=36;strokeColor=default;" parent="1" edge="1">
          <mxGeometry width="50" height="50" relative="1" as="geometry">
            <mxPoint x="1870" y="-130" as="sourcePoint" />
            <mxPoint x="1870" y="-60" as="targetPoint" />
          </mxGeometry>
        </mxCell>
        <mxCell id="1o0-CjudGOmomulbo82O-63" value="" style="shape=flexArrow;endArrow=classic;html=1;rounded=0;endWidth=50;endSize=16;width=36;strokeColor=default;" parent="1" edge="1">
          <mxGeometry width="50" height="50" relative="1" as="geometry">
            <mxPoint x="2709.5" y="-120" as="sourcePoint" />
            <mxPoint x="2709.5" y="-50" as="targetPoint" />
          </mxGeometry>
        </mxCell>
        <mxCell id="1o0-CjudGOmomulbo82O-64" value="EVENTS" style="text;html=1;align=center;verticalAlign=middle;whiteSpace=wrap;rounded=0;fontStyle=1;fontSize=19;" parent="1" vertex="1">
          <mxGeometry x="2250" y="-170" width="160" height="40" as="geometry" />
        </mxCell>
        <mxCell id="1o0-CjudGOmomulbo82O-65" value="" style="shape=flexArrow;endArrow=classic;html=1;rounded=0;endWidth=50;endSize=16;width=36;strokeColor=default;" parent="1" edge="1">
          <mxGeometry width="50" height="50" relative="1" as="geometry">
            <mxPoint x="2329.5" y="-130" as="sourcePoint" />
            <mxPoint x="2329.5" y="-60" as="targetPoint" />
          </mxGeometry>
        </mxCell>
        <mxCell id="1o0-CjudGOmomulbo82O-68" style="edgeStyle=orthogonalEdgeStyle;rounded=1;orthogonalLoop=1;jettySize=auto;html=1;exitX=1;exitY=0.5;exitDx=0;exitDy=0;entryX=0;entryY=0.5;entryDx=0;entryDy=0;curved=0;strokeColor=#33FF33;" parent="1" source="1o0-CjudGOmomulbo82O-66" target="1o0-CjudGOmomulbo82O-17" edge="1">
          <mxGeometry relative="1" as="geometry">
            <Array as="points">
              <mxPoint x="2480" y="1140" />
              <mxPoint x="2480" y="999" />
            </Array>
          </mxGeometry>
        </mxCell>
        <mxCell id="1o0-CjudGOmomulbo82O-75" style="edgeStyle=orthogonalEdgeStyle;rounded=1;orthogonalLoop=1;jettySize=auto;html=1;exitX=1;exitY=0.75;exitDx=0;exitDy=0;entryX=0;entryY=0.5;entryDx=0;entryDy=0;curved=0;strokeColor=#33FF33;" parent="1" source="1o0-CjudGOmomulbo82O-66" target="1o0-CjudGOmomulbo82O-69" edge="1">
          <mxGeometry relative="1" as="geometry">
            <mxPoint x="2840" y="1190" as="targetPoint" />
          </mxGeometry>
        </mxCell>
        <mxCell id="1o0-CjudGOmomulbo82O-66" value="&lt;b&gt;&lt;font color=&quot;#33ff33&quot;&gt;Scheduler&lt;/font&gt;&lt;/b&gt;TimerUpdateEvent&lt;div&gt;&lt;font face=&quot;Courier New&quot;&gt;- time&lt;/font&gt;&lt;/div&gt;" style="rounded=1;whiteSpace=wrap;html=1;strokeColor=#33FF33;" parent="1" vertex="1">
          <mxGeometry x="2275" y="1110" width="120" height="60" as="geometry" />
        </mxCell>
        <mxCell id="1o0-CjudGOmomulbo82O-81" style="edgeStyle=orthogonalEdgeStyle;rounded=1;orthogonalLoop=1;jettySize=auto;html=1;exitX=1;exitY=0.5;exitDx=0;exitDy=0;entryX=0;entryY=0.5;entryDx=0;entryDy=0;curved=0;strokeColor=#33FF33;" parent="1" source="1o0-CjudGOmomulbo82O-67" target="1o0-CjudGOmomulbo82O-69" edge="1">
          <mxGeometry relative="1" as="geometry" />
        </mxCell>
        <mxCell id="1o0-CjudGOmomulbo82O-82" style="edgeStyle=orthogonalEdgeStyle;rounded=1;orthogonalLoop=1;jettySize=auto;html=1;exitX=1;exitY=0.25;exitDx=0;exitDy=0;entryX=0;entryY=0.5;entryDx=0;entryDy=0;curved=0;strokeColor=#33FF33;" parent="1" source="1o0-CjudGOmomulbo82O-67" target="1o0-CjudGOmomulbo82O-17" edge="1">
          <mxGeometry relative="1" as="geometry">
            <Array as="points">
              <mxPoint x="2480" y="1245" />
              <mxPoint x="2480" y="999" />
            </Array>
          </mxGeometry>
        </mxCell>
        <mxCell id="1o0-CjudGOmomulbo82O-67" value="&lt;b&gt;&lt;font color=&quot;#33ff33&quot;&gt;Scheduler&lt;/font&gt;&lt;/b&gt;TargetTUpdateEvent&lt;div&gt;&lt;font face=&quot;Courier New&quot;&gt;- targetTemperature&lt;/font&gt;&lt;/div&gt;" style="rounded=1;whiteSpace=wrap;html=1;strokeColor=#33FF33;" parent="1" vertex="1">
          <mxGeometry x="2275" y="1230" width="120" height="60" as="geometry" />
        </mxCell>
        <mxCell id="1o0-CjudGOmomulbo82O-69" value="&lt;b&gt;&lt;font color=&quot;#ff9933&quot;&gt;Heating&lt;/font&gt;&lt;/b&gt;Domain" style="rounded=0;whiteSpace=wrap;html=1;" parent="1" vertex="1">
          <mxGeometry x="2880" y="1169" width="120" height="60" as="geometry" />
        </mxCell>
        <mxCell id="1o0-CjudGOmomulbo82O-70" value="&lt;font style=&quot;background-color: rgb(179, 179, 179);&quot; color=&quot;#000000&quot;&gt;&lt;span style=&quot;text-align: center;&quot;&gt;HeatingDomain::runCheck()&lt;/span&gt;&lt;/font&gt;&lt;div&gt;&lt;div&gt;&amp;nbsp; domainLedDevice.switchOn(true);&lt;/div&gt;&lt;div&gt;&amp;nbsp; schedulerDomain.tick();&lt;/div&gt;&lt;div&gt;&amp;nbsp; bool isOnForTemp = _checkForTemperature();&lt;/div&gt;&lt;div&gt;&amp;nbsp; if (isOnForTemp &amp;amp;&amp;amp; (!_isOn))&lt;/div&gt;&lt;div&gt;&amp;nbsp; &amp;nbsp; _switchOn();&lt;/div&gt;&lt;div&gt;&amp;nbsp; else if ((!isOnForTemp) &amp;amp;&amp;amp; _isOn)&lt;/div&gt;&lt;div&gt;&amp;nbsp; &amp;nbsp; _switchOff();&lt;/div&gt;&lt;div&gt;&amp;nbsp; domainLedDevice.switchOff(true);&lt;/div&gt;&lt;/div&gt;" style="text;html=1;align=left;verticalAlign=middle;whiteSpace=wrap;rounded=0;" parent="1" vertex="1">
          <mxGeometry x="3070" y="1141" width="260" height="140" as="geometry" />
        </mxCell>
        <mxCell id="1o0-CjudGOmomulbo82O-71" value="" style="endArrow=none;dashed=1;html=1;rounded=0;" parent="1" edge="1">
          <mxGeometry width="50" height="50" relative="1" as="geometry">
            <mxPoint x="3063" y="1331" as="sourcePoint" />
            <mxPoint x="3063" y="1141" as="targetPoint" />
          </mxGeometry>
        </mxCell>
        <mxCell id="1o0-CjudGOmomulbo82O-72" value="" style="endArrow=none;dashed=1;html=1;rounded=0;" parent="1" edge="1">
          <mxGeometry width="50" height="50" relative="1" as="geometry">
            <mxPoint x="3064" y="1200.42" as="sourcePoint" />
            <mxPoint x="3000" y="1200" as="targetPoint" />
          </mxGeometry>
        </mxCell>
        <mxCell id="1o0-CjudGOmomulbo82O-73" value="&lt;font style=&quot;background-color: rgb(179, 179, 179);&quot; color=&quot;#000000&quot;&gt;&lt;span style=&quot;text-align: center;&quot;&gt;DisplayDevice&lt;/span&gt;&lt;/font&gt;&lt;div&gt;&lt;span style=&quot;background-color: initial;&quot;&gt;&amp;nbsp;&amp;nbsp;&lt;/span&gt;&lt;span style=&quot;background-color: initial;&quot;&gt;_refreshFirstRow()&lt;/span&gt;&lt;span style=&quot;background-color: initial;&quot;&gt;&lt;br&gt;&lt;/span&gt;&lt;/div&gt;" style="text;html=1;align=left;verticalAlign=middle;whiteSpace=wrap;rounded=0;" parent="1" vertex="1">
          <mxGeometry x="2700" y="959" width="100" height="50" as="geometry" />
        </mxCell>
        <mxCell id="1o0-CjudGOmomulbo82O-74" value="&lt;font style=&quot;background-color: rgb(179, 179, 179);&quot; color=&quot;#000000&quot;&gt;&lt;span style=&quot;text-align: center;&quot;&gt;HeatingDomain&lt;/span&gt;&lt;/font&gt;&lt;div&gt;&lt;span style=&quot;background-color: initial;&quot;&gt;&amp;nbsp; runCheck();&lt;/span&gt;&lt;/div&gt;" style="text;html=1;align=left;verticalAlign=middle;whiteSpace=wrap;rounded=0;" parent="1" vertex="1">
          <mxGeometry x="2650" y="1160" width="100" height="40" as="geometry" />
        </mxCell>
        <mxCell id="1o0-CjudGOmomulbo82O-77" style="edgeStyle=orthogonalEdgeStyle;rounded=1;orthogonalLoop=1;jettySize=auto;html=1;exitX=1;exitY=0.25;exitDx=0;exitDy=0;entryX=0;entryY=0.5;entryDx=0;entryDy=0;curved=0;strokeColor=#33FF33;" parent="1" source="1o0-CjudGOmomulbo82O-76" target="1o0-CjudGOmomulbo82O-66" edge="1">
          <mxGeometry relative="1" as="geometry">
            <Array as="points">
              <mxPoint x="1930" y="1355" />
              <mxPoint x="1930" y="1140" />
            </Array>
          </mxGeometry>
        </mxCell>
        <mxCell id="1o0-CjudGOmomulbo82O-80" style="edgeStyle=orthogonalEdgeStyle;rounded=1;orthogonalLoop=1;jettySize=auto;html=1;exitX=0.75;exitY=0;exitDx=0;exitDy=0;entryX=0;entryY=0.5;entryDx=0;entryDy=0;curved=0;strokeColor=#33FF33;" parent="1" source="1o0-CjudGOmomulbo82O-76" target="1o0-CjudGOmomulbo82O-67" edge="1">
          <mxGeometry relative="1" as="geometry">
            <Array as="points">
              <mxPoint x="1820" y="1260" />
            </Array>
          </mxGeometry>
        </mxCell>
        <mxCell id="1o0-CjudGOmomulbo82O-92" style="edgeStyle=orthogonalEdgeStyle;rounded=1;orthogonalLoop=1;jettySize=auto;html=1;exitX=1;exitY=0.25;exitDx=0;exitDy=0;entryX=0;entryY=0.5;entryDx=0;entryDy=0;curved=0;strokeColor=#33FF33;" parent="1" source="1o0-CjudGOmomulbo82O-76" target="1o0-CjudGOmomulbo82O-91" edge="1">
          <mxGeometry relative="1" as="geometry">
            <Array as="points">
              <mxPoint x="1930" y="1355" />
              <mxPoint x="1930" y="1490" />
            </Array>
          </mxGeometry>
        </mxCell>
        <mxCell id="1o0-CjudGOmomulbo82O-93" style="edgeStyle=orthogonalEdgeStyle;rounded=0;orthogonalLoop=1;jettySize=auto;html=1;exitX=1;exitY=0.75;exitDx=0;exitDy=0;entryX=0;entryY=0.75;entryDx=0;entryDy=0;strokeColor=#33FF33;" parent="1" source="1o0-CjudGOmomulbo82O-76" target="1o0-CjudGOmomulbo82O-84" edge="1">
          <mxGeometry relative="1" as="geometry" />
        </mxCell>
        <mxCell id="1o0-CjudGOmomulbo82O-76" value="&lt;b&gt;&lt;font color=&quot;#33ff33&quot;&gt;Scheduler&lt;/font&gt;&lt;/b&gt;Domain" style="rounded=0;whiteSpace=wrap;html=1;" parent="1" vertex="1">
          <mxGeometry x="1730" y="1340" width="120" height="60" as="geometry" />
        </mxCell>
        <mxCell id="1o0-CjudGOmomulbo82O-78" value="&lt;div style=&quot;text-align: left;&quot;&gt;&lt;span style=&quot;font-style: normal;&quot;&gt;&lt;span style=&quot;color: rgb(0, 0, 0); background-color: rgb(179, 179, 179);&quot;&gt;SchedulerDomain::&lt;/span&gt;&lt;font color=&quot;#000000&quot; style=&quot;background-color: rgb(179, 179, 179);&quot;&gt;_onTimerRotaryRotation()&lt;/font&gt;&lt;/span&gt;&lt;/div&gt;&lt;div style=&quot;text-align: left;&quot;&gt;&lt;font color=&quot;#000000&quot; style=&quot;&quot;&gt;&lt;/font&gt;&lt;font color=&quot;#ffffff&quot;&gt;&amp;lt;see right hand side&amp;gt;&lt;/font&gt;&lt;/div&gt;&lt;div&gt;&lt;/div&gt;" style="text;html=1;align=left;verticalAlign=middle;whiteSpace=wrap;rounded=0;fontStyle=2" parent="1" vertex="1">
          <mxGeometry x="1923" y="1101" width="290" height="40" as="geometry" />
        </mxCell>
        <mxCell id="1o0-CjudGOmomulbo82O-79" value="&lt;div style=&quot;text-align: left;&quot;&gt;&lt;span style=&quot;font-style: normal;&quot;&gt;&lt;span style=&quot;color: rgb(0, 0, 0); background-color: rgb(179, 179, 179);&quot;&gt;SchedulerDomain::&lt;/span&gt;&lt;font color=&quot;#000000&quot; style=&quot;background-color: rgb(179, 179, 179);&quot;&gt;_onTargetTRotaryRotationChange()&lt;/font&gt;&lt;/span&gt;&lt;/div&gt;&lt;div style=&quot;text-align: left;&quot;&gt;&lt;font color=&quot;#000000&quot; style=&quot;&quot;&gt;&lt;/font&gt;&lt;font color=&quot;#ffffff&quot;&gt;&amp;lt; see right hand side&amp;gt;&lt;/font&gt;&lt;/div&gt;&lt;div&gt;&lt;/div&gt;" style="text;html=1;align=left;verticalAlign=middle;whiteSpace=wrap;rounded=0;fontStyle=2" parent="1" vertex="1">
          <mxGeometry x="1960" y="1220" width="290" height="40" as="geometry" />
        </mxCell>
        <mxCell id="1o0-CjudGOmomulbo82O-86" style="edgeStyle=orthogonalEdgeStyle;rounded=1;orthogonalLoop=1;jettySize=auto;html=1;exitX=1;exitY=0.25;exitDx=0;exitDy=0;entryX=0;entryY=0.5;entryDx=0;entryDy=0;curved=0;strokeColor=#33FF33;" parent="1" source="1o0-CjudGOmomulbo82O-84" target="1o0-CjudGOmomulbo82O-17" edge="1">
          <mxGeometry relative="1" as="geometry">
            <Array as="points">
              <mxPoint x="2480" y="1355" />
              <mxPoint x="2480" y="999" />
            </Array>
          </mxGeometry>
        </mxCell>
        <mxCell id="1o0-CjudGOmomulbo82O-87" style="edgeStyle=orthogonalEdgeStyle;rounded=1;orthogonalLoop=1;jettySize=auto;html=1;exitX=1;exitY=0.75;exitDx=0;exitDy=0;entryX=1;entryY=0.5;entryDx=0;entryDy=0;curved=0;strokeColor=#33FF33;" parent="1" source="1o0-CjudGOmomulbo82O-84" target="1o0-CjudGOmomulbo82O-12" edge="1">
          <mxGeometry relative="1" as="geometry">
            <Array as="points">
              <mxPoint x="3380" y="1385" />
              <mxPoint x="3380" y="250" />
            </Array>
          </mxGeometry>
        </mxCell>
        <mxCell id="1o0-CjudGOmomulbo82O-89" style="edgeStyle=orthogonalEdgeStyle;rounded=1;orthogonalLoop=1;jettySize=auto;html=1;exitX=1;exitY=0.5;exitDx=0;exitDy=0;entryX=0;entryY=0.75;entryDx=0;entryDy=0;curved=0;strokeColor=#33FF33;" parent="1" source="1o0-CjudGOmomulbo82O-84" target="1o0-CjudGOmomulbo82O-69" edge="1">
          <mxGeometry relative="1" as="geometry">
            <Array as="points">
              <mxPoint x="2720" y="1370" />
              <mxPoint x="2720" y="1214" />
            </Array>
          </mxGeometry>
        </mxCell>
        <mxCell id="1o0-CjudGOmomulbo82O-84" value="&lt;b&gt;&lt;font color=&quot;#33ff33&quot;&gt;Scheduler&lt;/font&gt;&lt;/b&gt;EndEvent" style="rounded=1;whiteSpace=wrap;html=1;" parent="1" vertex="1">
          <mxGeometry x="2275" y="1340" width="120" height="60" as="geometry" />
        </mxCell>
        <mxCell id="1o0-CjudGOmomulbo82O-88" value="&lt;font style=&quot;background-color: rgb(179, 179, 179);&quot; color=&quot;#000000&quot;&gt;&lt;span style=&quot;text-align: center;&quot;&gt;RelayDevice&lt;/span&gt;&lt;/font&gt;&lt;div&gt;&lt;div&gt;&amp;nbsp;&amp;nbsp;&lt;span style=&quot;background-color: initial;&quot;&gt;_switchOff();&lt;/span&gt;&lt;/div&gt;&lt;/div&gt;" style="text;html=1;align=left;verticalAlign=middle;whiteSpace=wrap;rounded=0;" parent="1" vertex="1">
          <mxGeometry x="3190" y="203" width="120" height="37" as="geometry" />
        </mxCell>
        <mxCell id="1o0-CjudGOmomulbo82O-90" value="&lt;font style=&quot;background-color: rgb(179, 179, 179);&quot; color=&quot;#000000&quot;&gt;&lt;span style=&quot;text-align: center;&quot;&gt;HeatingDomain::_end()&lt;/span&gt;&lt;/font&gt;&lt;div&gt;&lt;span style=&quot;background-color: initial;&quot;&gt;&amp;nbsp;&amp;nbsp;&lt;/span&gt;&lt;span style=&quot;background-color: initial;&quot;&gt;if (_isOn) _switchOff();&lt;/span&gt;&lt;/div&gt;&lt;div&gt;&amp;nbsp; cancelTask(runTaskId);&lt;/div&gt;" style="text;html=1;align=left;verticalAlign=middle;whiteSpace=wrap;rounded=0;" parent="1" vertex="1">
          <mxGeometry x="2725" y="1240" width="145" height="60" as="geometry" />
        </mxCell>
        <mxCell id="1o0-CjudGOmomulbo82O-95" style="edgeStyle=orthogonalEdgeStyle;rounded=1;orthogonalLoop=1;jettySize=auto;html=1;exitX=1;exitY=0.25;exitDx=0;exitDy=0;entryX=0;entryY=0.5;entryDx=0;entryDy=0;curved=0;strokeColor=#33FF33;" parent="1" source="1o0-CjudGOmomulbo82O-91" target="1o0-CjudGOmomulbo82O-17" edge="1">
          <mxGeometry relative="1" as="geometry">
            <Array as="points">
              <mxPoint x="2480" y="1475" />
              <mxPoint x="2480" y="999" />
            </Array>
          </mxGeometry>
        </mxCell>
        <mxCell id="1o0-CjudGOmomulbo82O-96" style="edgeStyle=orthogonalEdgeStyle;rounded=1;orthogonalLoop=1;jettySize=auto;html=1;exitX=1;exitY=0.5;exitDx=0;exitDy=0;entryX=0.5;entryY=1;entryDx=0;entryDy=0;curved=0;strokeColor=#33FF33;" parent="1" source="1o0-CjudGOmomulbo82O-91" target="1o0-CjudGOmomulbo82O-69" edge="1">
          <mxGeometry relative="1" as="geometry" />
        </mxCell>
        <mxCell id="1o0-CjudGOmomulbo82O-98" style="rounded=0;orthogonalLoop=1;jettySize=auto;html=1;exitX=1;exitY=0.75;exitDx=0;exitDy=0;entryX=0;entryY=0.5;entryDx=0;entryDy=0;strokeColor=#33FF33;" parent="1" source="1o0-CjudGOmomulbo82O-91" target="1o0-CjudGOmomulbo82O-97" edge="1">
          <mxGeometry relative="1" as="geometry" />
        </mxCell>
        <mxCell id="1o0-CjudGOmomulbo82O-91" value="&lt;font color=&quot;#33ff33&quot;&gt;&lt;b&gt;Scheduler&lt;/b&gt;&lt;/font&gt;StartEvent" style="rounded=1;whiteSpace=wrap;html=1;" parent="1" vertex="1">
          <mxGeometry x="2275" y="1460" width="120" height="60" as="geometry" />
        </mxCell>
        <mxCell id="1o0-CjudGOmomulbo82O-94" value="&lt;font style=&quot;background-color: rgb(179, 179, 179);&quot; color=&quot;#000000&quot;&gt;&lt;span style=&quot;text-align: center;&quot;&gt;DisplayDevice&lt;/span&gt;&lt;/font&gt;&lt;div&gt;&amp;nbsp; _targetT = schedulerDomain.targetT;&lt;/div&gt;&lt;div&gt;&lt;span style=&quot;background-color: initial;&quot;&gt;&amp;nbsp; _refreshFirstRow()&lt;/span&gt;&lt;br&gt;&lt;/div&gt;" style="text;html=1;align=left;verticalAlign=middle;whiteSpace=wrap;rounded=0;" parent="1" vertex="1">
          <mxGeometry x="2380" y="1410" width="220" height="50" as="geometry" />
        </mxCell>
        <mxCell id="1o0-CjudGOmomulbo82O-97" value="&lt;b&gt;&lt;font color=&quot;#9999ff&quot;&gt;Rotary&lt;/font&gt;&lt;/b&gt;EncoderDevices" style="rounded=0;whiteSpace=wrap;html=1;" parent="1" vertex="1">
          <mxGeometry x="2810" y="1570" width="120" height="60" as="geometry" />
        </mxCell>
      </root>
    </mxGraphModel>
  </diagram>
</mxfile>
